<svg width="30" height="57" viewBox="0 0 30 57" fill="none" xmlns="http://www.w3.org/2000/svg">
<path d="M27.9523 46.2948C30.3059 43.9411 30.3059 40.1304 27.9523 37.7767L24.3657 34.1902C22.0121 31.8365 22.0121 25.56 24.3657 23.2064L27.9523 19.6198C30.3059 17.2662 30.3059 13.4555 27.9523 11.1018L19.3221 2.35958C16.9685 0.00590515 13.1578 0.00590515 10.8041 2.35958L2.06188 11.1018C-0.291787 13.4555 -0.291787 17.2662 2.06188 19.6198L5.76051 23.2064C8.11418 25.56 8.11418 31.8365 5.76051 34.1902L2.06188 37.7767C-0.291787 40.1304 -0.291787 43.9411 2.06188 46.2948L10.8041 55.037C13.1578 57.3907 16.9685 57.3907 19.3221 55.037L27.9523 46.2948Z" fill="white"/>
</svg>
