<svg width="67" height="69" viewBox="0 0 67 69" fill="none" xmlns="http://www.w3.org/2000/svg">
<path d="M40.4575 42.3945V14.3945M40.4575 42.3945L61.8145 54.599C62.1337 54.7816 62.4952 54.8773 62.8629 54.8763C63.2306 54.8754 63.5916 54.7779 63.9099 54.5936C64.2281 54.4094 64.4923 54.1448 64.6762 53.8263C64.86 53.5079 64.9571 53.1467 64.9575 52.779V4.01C64.9577 3.64199 64.8611 3.2804 64.6775 2.96146C64.4939 2.64252 64.2297 2.37744 63.9114 2.19276C63.5931 2.00807 63.2318 1.91029 62.8638 1.90919C62.4958 1.90809 62.1339 2.00372 61.8145 2.1865L40.4575 14.3945M40.4575 42.3945H15.9575M40.4575 14.3945H15.9575C12.2445 14.3945 8.68353 15.8695 6.05802 18.495C3.43251 21.1205 1.95752 24.6815 1.95752 28.3945C1.95752 32.1075 3.43251 35.6685 6.05802 38.294C8.68353 40.9195 12.2445 42.3945 15.9575 42.3945M15.9575 42.3945L18.607 60.9445C18.8835 62.7493 19.861 64.372 21.3272 65.4601C22.7933 66.5482 24.6297 67.0138 26.4372 66.7556C28.2446 66.4973 29.8772 65.5363 30.98 64.0812C32.0829 62.626 32.567 60.7945 32.327 58.9845L29.9575 42.3945H15.9575Z" stroke="black" stroke-width="3"/>
<path d="M15.9575 42.3936H29.9575L32.327 58.9836C32.567 60.7935 32.0829 62.6251 30.98 64.0802C29.8772 65.5353 28.2446 66.4964 26.4372 66.7546C24.6297 67.0128 22.7933 66.5473 21.3272 65.4592C19.861 64.3711 18.8835 62.7483 18.607 60.9436L15.9575 42.3936Z" fill="#3A4A85" stroke="black" stroke-width="3"/>
<path d="M40.4575 42.3945V14.3945L61.8145 2.1865C62.1339 2.00372 62.4958 1.90809 62.8638 1.90919C63.2318 1.91029 63.5931 2.00807 63.9114 2.19276C64.2297 2.37744 64.4939 2.64252 64.6775 2.96146C64.8611 3.2804 64.9577 3.64199 64.9575 4.01V52.779C64.9571 53.1467 64.86 53.5079 64.6762 53.8263C64.4923 54.1448 64.2281 54.4094 63.9099 54.5936C63.5916 54.7779 63.2306 54.8754 62.8629 54.8763C62.4952 54.8773 62.1337 54.7816 61.8145 54.599L40.4575 42.3945Z" fill="#3A4A85" stroke="black" stroke-width="3"/>
</svg>
