<svg width="85" height="85" viewBox="0 0 85 85" fill="none" xmlns="http://www.w3.org/2000/svg">
<path d="M22.612 60.3586C22.29 59.3926 22.129 58.9061 22.1465 58.5141C22.1663 58.1088 22.3031 57.7179 22.5404 57.3887C22.7776 57.0595 23.1052 56.8061 23.4835 56.6591C23.8475 56.5156 24.3585 56.5156 25.3735 56.5156H52.1695C53.188 56.5156 53.6955 56.5156 54.0595 56.6556C54.4383 56.8028 54.7662 57.0568 55.0035 57.3867C55.2408 57.7165 55.3773 58.1082 55.3965 58.5141C55.4139 58.9046 55.2542 59.3853 54.9348 60.3472L54.931 60.3586L54.9262 60.3729C54.3344 62.1519 54.0373 63.0451 53.58 63.7676C52.621 65.2818 51.1177 66.3704 49.38 66.8091C48.547 67.0156 47.609 67.0156 45.7295 67.0156H31.8135C29.934 67.0156 28.9925 67.0156 28.163 66.8056C26.4258 66.3677 24.9226 65.2804 23.963 63.7676C23.5057 63.0451 23.2086 62.1519 22.6167 60.3729L22.612 60.3586Z" fill="#3A4A85"/>
<path d="M59.7715 18.0156H52.7715C49.471 18.0156 47.8225 18.0156 46.797 19.0411C45.7715 20.0666 45.7715 21.7151 45.7715 25.0156V32.0156C45.7715 35.3161 45.7715 36.9646 46.797 37.9901C47.8225 39.0156 49.471 39.0156 52.7715 39.0156H59.7715C63.072 39.0156 64.7205 39.0156 65.746 37.9901C66.7715 36.9646 66.7715 35.3161 66.7715 32.0156V25.0156C66.7715 21.7151 66.7715 20.0666 65.746 19.0411C64.7205 18.0156 63.072 18.0156 59.7715 18.0156Z" fill="#3A4A85"/>
<path d="M38.7715 7.51562C23.3085 7.51562 10.7715 19.9231 10.7715 35.2321C10.7715 40.4576 12.231 45.3471 14.772 49.5156M51.0215 39.0156V46.0156M61.5215 39.0156V46.0156M51.0215 11.0156V18.0156M61.5215 11.0156V18.0156M45.7715 23.2656H38.7715M45.7715 33.7656H38.7715M73.7715 23.2656H66.7715M73.7715 33.7656H66.7715M22.612 60.3586C22.29 59.3926 22.129 58.9061 22.1465 58.5141C22.1663 58.1088 22.3031 57.7179 22.5404 57.3887C22.7776 57.0595 23.1052 56.8061 23.4835 56.6591C23.8475 56.5156 24.3585 56.5156 25.3735 56.5156H52.1695C53.188 56.5156 53.6955 56.5156 54.0595 56.6556C54.4383 56.8028 54.7662 57.0568 55.0035 57.3867C55.2408 57.7165 55.3773 58.1082 55.3965 58.5141C55.4139 58.9046 55.2542 59.3853 54.9348 60.3472M22.612 60.3586L22.6167 60.3729M22.612 60.3586C22.6136 60.3634 22.6152 60.3682 22.6167 60.3729M54.931 60.3586L54.9348 60.3472M54.931 60.3586L54.9262 60.3729M54.931 60.3586C54.9294 60.3634 54.9278 60.3682 54.9262 60.3729M54.931 60.3586C54.9323 60.3548 54.9335 60.351 54.9348 60.3472M49.2715 67.0156L48.8165 69.2801C48.3265 71.7546 48.078 72.9901 47.5215 73.9701C46.664 75.4806 45.2755 76.6183 43.626 77.1621C42.5585 77.5156 41.2915 77.5156 38.7715 77.5156C36.2515 77.5156 34.9845 77.5156 33.917 77.1656C32.2669 76.6209 30.8783 75.4819 30.0215 73.9701C29.465 72.9901 29.2165 71.7546 28.7265 69.2801L28.2715 67.0156M54.9262 60.3729C54.3344 62.1519 54.0373 63.0451 53.58 63.7676C52.621 65.2818 51.1177 66.3704 49.38 66.8091C48.547 67.0156 47.609 67.0156 45.7295 67.0156H31.8135C29.934 67.0156 28.9925 67.0156 28.163 66.8056C26.4258 66.3677 24.9226 65.2804 23.963 63.7676C23.5057 63.0451 23.2086 62.1519 22.6167 60.3729M59.7715 18.0156H52.7715C49.471 18.0156 47.8225 18.0156 46.797 19.0411C45.7715 20.0666 45.7715 21.7151 45.7715 25.0156V32.0156C45.7715 35.3161 45.7715 36.9646 46.797 37.9901C47.8225 39.0156 49.471 39.0156 52.7715 39.0156H59.7715C63.072 39.0156 64.7205 39.0156 65.746 37.9901C66.7715 36.9646 66.7715 35.3161 66.7715 32.0156V25.0156C66.7715 21.7151 66.7715 20.0666 65.746 19.0411C64.7205 18.0156 63.072 18.0156 59.7715 18.0156Z" stroke="#111111" stroke-width="3" stroke-linecap="round" stroke-linejoin="round"/>
</svg>
