<svg width="30" height="57" viewBox="0 0 30 57" fill="none" xmlns="http://www.w3.org/2000/svg">
<path d="M27.9523 45.9994C30.3059 43.6457 30.3059 39.835 27.9523 37.4813L24.3657 33.8948C22.0121 31.5411 22.0121 25.2646 24.3657 22.911L27.9523 19.3244C30.3059 16.9707 30.3059 13.16 27.9523 10.8064L19.3221 2.06417C16.9685 -0.289505 13.1578 -0.289505 10.8041 2.06417L2.06188 10.8064C-0.291787 13.16 -0.291787 16.9707 2.06188 19.3244L5.76051 22.911C8.11418 25.2646 8.11418 31.5411 5.76051 33.8948L2.06188 37.4813C-0.291787 39.835 -0.291787 43.6457 2.06188 45.9994L10.8041 54.7416C13.1578 57.0953 16.9685 57.0953 19.3221 54.7416L27.9523 45.9994Z" fill="#FFB43D"/>
</svg>
