<svg width="85" height="85" viewBox="0 0 85 85" fill="none" xmlns="http://www.w3.org/2000/svg">
<path d="M75.522 72.9824H42.522C42.522 72.9824 39.327 54.1603 31.3718 45.9264C23.0851 37.3493 3.52197 33.9824 3.52197 33.9824V18.9824C3.52197 17.3911 4.15411 15.865 5.27933 14.7398C6.40455 13.6146 7.93067 12.9824 9.52197 12.9824H75.522C77.1133 12.9824 78.6394 13.6146 79.7646 14.7398C80.8898 15.865 81.522 17.3911 81.522 18.9824V66.9824C81.522 68.5737 80.8898 70.0998 79.7646 71.2251C78.6394 72.3503 77.1133 72.9824 75.522 72.9824Z" fill="#3A4A85"/>
<path d="M3.52197 48.9824C9.88717 48.9824 15.9917 51.511 20.4925 56.0119C24.9934 60.5127 27.522 66.6172 27.522 72.9824M3.52197 63.9824C5.90892 63.9824 8.19811 64.9306 9.88593 66.6185C11.5738 68.3063 12.522 70.5955 12.522 72.9824M42.522 72.9824H75.522C77.1133 72.9824 78.6394 72.3503 79.7646 71.2251C80.8898 70.0998 81.522 68.5737 81.522 66.9824V18.9824C81.522 17.3911 80.8898 15.865 79.7646 14.7398C78.6394 13.6146 77.1133 12.9824 75.522 12.9824H9.52197C7.93067 12.9824 6.40455 13.6146 5.27933 14.7398C4.15411 15.865 3.52197 17.3911 3.52197 18.9824V33.9824M42.522 72.9824C42.522 72.9824 39.6658 53.9653 31.7106 45.7314C23.4239 37.1543 3.52197 33.9824 3.52197 33.9824M42.522 72.9824C42.522 72.9824 39.327 54.1603 31.3718 45.9264C23.0851 37.3493 3.52197 33.9824 3.52197 33.9824" stroke="black" stroke-width="3" stroke-linecap="round" stroke-linejoin="round"/>
</svg>
