<svg width="583" height="647" viewBox="0 0 583 647" fill="none" xmlns="http://www.w3.org/2000/svg">
<path d="M85.0861 545.166C89.9017 545.166 93.1123 549.581 91.9084 553.995L89.0998 564.429C88.2972 567.639 85.4878 569.645 82.2775 569.646H67.0275C63.8174 569.646 61.0088 571.652 60.2063 574.862L42.1477 641.478C41.3451 644.287 38.5358 646.694 35.3254 646.694H26.0959C21.2804 646.694 18.0698 642.28 19.2736 637.465L34.924 578.474C36.1277 574.059 32.9172 569.646 28.1018 569.646H20.8791C16.0635 569.646 12.4517 565.231 14.0568 560.816L16.8654 550.383C17.6681 547.173 20.4775 545.166 23.6877 545.166H85.0861ZM119.596 545.166C124.411 545.166 127.621 549.581 126.417 553.995L121.2 574.06C119.997 578.474 123.207 582.889 128.023 582.889H144.074C147.285 582.889 150.094 580.881 150.897 577.671L158.522 550.383C159.324 547.173 162.134 545.166 165.344 545.166H174.573C179.389 545.166 182.6 549.581 181.396 553.995L157.719 641.478C156.916 644.287 154.107 646.694 150.897 646.694H141.667C136.852 646.694 133.641 642.28 134.845 637.465L140.463 616.998C141.667 612.584 138.055 607.769 133.641 607.769H117.188C113.977 607.769 111.168 610.176 110.365 613.387L102.741 641.478C101.939 644.287 99.1295 646.694 95.9192 646.694H86.6897C81.8741 646.694 78.6636 642.28 79.8674 637.465L103.544 550.383C104.347 547.173 107.155 545.166 110.365 545.166H119.596ZM260.054 545.166C264.468 545.166 268.08 549.581 266.876 553.995L264.067 563.626C263.264 566.836 260.456 568.843 257.245 568.843H221.931C218.721 568.843 215.911 571.251 215.109 574.06V575.264C213.905 580.079 217.115 584.493 221.931 584.493H244.805C249.62 584.493 252.831 588.908 251.627 593.322L249.62 601.348C248.818 604.558 246.008 606.564 242.798 606.564H211.899C208.688 606.564 205.879 608.571 205.076 611.781L204.675 613.788C203.471 618.202 206.682 622.617 211.497 622.617H239.588C244.404 622.617 247.613 627.031 246.409 631.445L243.601 641.478C242.798 644.287 239.989 646.694 236.779 646.694H180.998C176.584 646.694 172.972 642.28 174.176 637.465L197.853 550.383C198.655 547.173 201.465 545.166 204.675 545.166H260.054ZM540.962 128.619C548.988 128.619 556.212 133.033 560.225 139.454L579.086 171.157C582.296 176.374 583.098 182.794 581.493 188.813L470.334 583.69C469.13 588.105 466.722 591.716 463.512 594.525L409.337 641.076C405.324 644.688 400.107 646.694 394.89 646.694H286.942C272.094 646.694 261.66 632.649 265.272 618.604L280.119 560.816C282.527 551.185 291.757 544.363 301.789 544.363H333.491C343.524 544.363 351.952 537.541 354.761 527.91L431.007 268.271C435.02 253.824 424.586 239.778 409.337 239.778H278.915C264.067 239.778 253.232 225.332 257.245 211.286L275.705 145.072C278.514 135.441 287.343 128.619 297.375 128.619H540.962ZM220.725 128.619C237.579 128.619 250.02 145.072 245.204 161.525L147.287 507.845C144.077 519.081 134.044 526.706 122.406 526.706H42.9504C25.6946 526.706 13.6553 510.253 18.0695 493.8L58.6008 350.938C63.416 334.484 50.9756 318.031 34.1213 318.031H25.6945C8.43876 318.031 -4.00182 300.775 1.21505 284.322L7.23458 266.265C8.83972 261.449 12.0499 257.035 16.0627 253.824L176.582 133.836C180.996 130.626 186.213 128.619 192.233 128.619H220.725ZM400.909 509.852C400.107 509.852 399.305 510.253 398.904 511.457L396.094 520.285C395.693 521.489 396.897 523.095 398.101 523.095H453.48C454.684 523.095 455.487 522.693 455.888 521.891L458.295 512.661C458.696 511.457 457.893 510.253 456.288 510.253L400.909 509.852ZM438.231 307.999C437.027 311.209 436.224 313.216 436.224 314.019C434.619 318.834 435.556 322.58 439.033 325.255C441.441 327.128 445.053 328.331 449.868 328.866C451.072 328.867 451.874 330.472 451.473 331.676L439.835 371.404C439.033 374.08 439.033 376.488 439.835 378.628C439.835 379.43 439.835 380.233 439.434 380.634C438.631 381.436 437.829 382.373 437.027 383.443C435.956 385.316 435.153 387.189 434.618 389.062L421.778 433.204C420.975 435.879 420.44 438.688 420.172 441.631C420.172 444.039 420.306 446.313 420.573 448.453C420.573 448.988 420.44 449.524 420.172 450.059C418.567 452.199 417.096 454.473 415.758 456.881C414.153 459.824 412.948 462.632 412.146 465.308L402.113 500.221C401.712 501.826 402.515 503.029 404.12 503.029L459.499 503.431C460.302 503.431 461.104 502.629 461.505 501.826L464.315 492.997C464.716 491.392 463.512 490.188 462.308 490.188L420.172 489.787C418.567 489.787 417.764 488.583 418.165 487.379L424.185 466.11C424.987 464.505 426.994 464.104 427.797 465.308C429.135 467.18 430.472 468.652 431.81 469.722C433.95 471.862 436.625 472.933 439.835 472.933L447.46 473.334L447.862 472.933C450.269 470.257 452.811 466.779 455.487 462.499C458.162 458.219 460.035 454.072 461.105 450.059C462.442 445.778 462.977 441.497 462.709 437.217C462.709 432.936 462.308 429.458 461.505 426.783L461.105 425.98L453.078 426.382C449.868 426.382 446.658 427.185 443.046 429.191C440.371 431.064 437.027 433.605 433.014 436.815C433.281 435.745 433.548 434.675 433.816 433.605L441.039 408.725C441.441 407.922 442.244 407.521 443.046 407.521H453.48C455.085 407.521 457.76 407.254 461.505 406.719C465.251 406.451 468.997 405.916 472.742 405.113H473.544L476.354 393.476H474.748C470.2 394.011 466.722 394.278 464.315 394.278H447.862C446.658 394.278 445.855 393.074 446.256 391.87L446.657 389.463C446.925 388.66 447.326 387.857 447.862 387.055C448.263 386.252 449.066 385.851 449.868 386.252C451.741 386.519 453.748 386.653 455.888 386.653H473.143C473.945 386.653 474.748 386.252 475.15 385.449L477.558 376.22C477.959 375.016 477.156 373.812 475.551 373.812L459.098 373.411C456.69 373.411 454.817 373.01 453.48 372.207C453.078 371.404 452.276 370.601 453.078 368.193L453.48 366.589C453.48 365.786 454.283 365.385 455.487 365.385H479.162C479.965 365.385 480.768 364.983 481.169 363.779L483.979 354.951C484.38 353.747 483.176 352.142 481.972 352.142H460.302C459.098 352.142 457.894 350.938 458.295 349.734L463.913 330.873C464.315 329.669 465.118 329.268 465.92 329.268H494.011C494.813 329.267 495.615 328.867 496.017 328.064L498.425 318.834C498.826 317.63 498.023 316.427 496.418 316.427L455.487 316.025C452.811 316.025 450.939 315.624 449.868 314.821C449.066 314.42 448.664 313.216 449.066 311.21L449.467 310.006C449.868 308.401 449.065 307.196 447.862 307.196H438.632L438.231 307.999ZM447.461 440.025C449.066 439.223 450.672 440.426 450.271 442.031C450.271 444.439 449.869 446.847 449.067 449.255C448.264 452.465 446.793 455.809 444.653 459.287C444.251 460.09 443.448 460.491 442.244 460.09C441.174 459.555 439.971 458.752 438.633 457.682C437.028 456.344 435.69 454.07 434.62 450.86C434.219 450.459 434.619 449.656 435.021 448.854C437.964 445.911 440.773 443.636 443.448 442.031C445.053 440.961 446.391 440.293 447.461 440.025ZM498.826 358.161C498.425 357.359 496.819 357.359 496.017 358.161L485.985 366.99C484.781 367.793 484.781 368.996 485.583 369.799L489.196 374.213C489.998 375.015 489.998 376.621 489.196 377.022L480.768 384.246C479.965 385.049 479.965 386.654 480.768 387.456L485.985 393.476C486.787 394.278 487.992 394.278 488.794 393.476L499.228 384.647C500.03 383.845 500.03 382.64 499.228 381.838L495.615 377.424C494.813 376.621 494.813 375.417 495.615 374.614L504.043 367.392C504.846 366.589 504.846 365.385 504.445 364.582L498.826 358.161ZM514.878 366.589C514.076 365.786 512.872 365.385 512.07 366.188L502.036 375.016C500.833 375.818 500.832 377.023 501.635 378.227L506.852 384.246C507.654 385.049 508.859 385.049 509.661 384.246L520.095 375.417C520.897 374.614 520.897 373.411 520.095 372.608L514.878 366.589ZM495.615 259.041C489.462 259.041 484.513 259.843 480.768 261.448C477.022 263.053 473.946 265.595 471.538 269.073C469.398 272.284 467.525 276.698 465.92 282.316L460.302 302.381C459.901 303.585 460.703 304.789 461.906 304.789L503.24 305.19L503.642 304.388C504.444 302.515 505.648 299.438 507.253 295.157C508.591 290.609 509.795 286.731 510.865 283.521C512.738 277.635 513.54 272.953 513.273 269.475C512.738 265.729 511.133 263.053 508.457 261.448C505.782 259.843 501.501 259.041 495.615 259.041ZM533.739 264.258C532.937 263.455 531.732 263.054 530.93 263.856L520.496 272.685C519.694 273.487 519.694 275.093 520.496 275.896L524.108 279.908C524.91 281.112 524.509 282.317 523.706 283.119L515.681 290.342C514.477 291.144 514.477 292.349 515.279 293.151L520.496 299.171C521.299 299.973 522.503 299.974 523.306 299.572L533.739 290.342C534.542 289.539 534.542 288.336 534.141 287.533L530.127 283.119C529.325 282.317 529.726 281.112 530.529 280.31L538.555 273.086C539.758 272.283 539.759 271.08 538.956 270.277L533.739 264.258ZM492 272.686C494.675 272.686 496.682 272.952 498.02 273.487C499.09 274.29 499.625 275.361 499.625 276.698C499.625 278.303 499.224 280.578 498.421 283.521C497.619 285.928 496.816 288.202 496.014 290.342C496.014 291.144 495.211 291.546 494.408 291.546H478.357C477.153 291.546 475.949 290.342 476.35 288.737L477.955 283.521C478.758 280.845 479.694 278.705 480.764 277.1C481.834 275.494 483.172 274.29 484.778 273.487C486.65 272.952 489.058 272.686 492 272.686ZM451.872 6.62499C460.299 -1.8021 473.943 -1.80206 482.37 6.62499L513.672 37.9258C522.099 46.353 522.099 59.9975 513.672 68.4248L482.37 99.3242C473.943 107.751 460.3 107.751 451.872 99.3242L439.03 86.4834C430.603 78.0561 408.131 78.0561 399.703 86.4834L386.862 99.3242C378.434 107.751 364.791 107.751 356.363 99.3242L325.062 68.4248C316.635 59.9975 316.635 46.353 325.062 37.9258L356.363 6.62499C364.791 -1.80209 378.434 -1.80203 386.862 6.62499L399.703 19.8682C408.131 28.2952 430.603 28.2951 439.03 19.8682L451.872 6.62499Z" fill="url(#paint0_linear_177_600)"/>
<defs>
<linearGradient id="paint0_linear_177_600" x1="11.6427" y1="0.304688" x2="0.0139189" y2="681.196" gradientUnits="userSpaceOnUse">
<stop stop-color="#FFB43D"/>
<stop offset="1" stop-color="#3A4A85"/>
</linearGradient>
</defs>
</svg>
